<svg id="Layer_1" data-name="Layer 1" xmlns="http://www.w3.org/2000/svg" viewBox="0 0 628.73 405.99"><defs><style>.cls-1{fill:none;}</style></defs><title>dtwln-animate2</title><path class="cls-1" d="M301.22,92q9.69,71.28,21.92,142.18" transform="translate(-93.88 -91.97)"/><path class="cls-1" d="M271.93,191a560.47,560.47,0,0,1,74-93" transform="translate(-93.88 -91.97)"/><path class="cls-1" d="M478.11,160c-1.23,5.51-5.77,27.3-1.09,42.4,2.29,7.4,5.76,9.84,7,10.6a16.25,16.25,0,0,0,11,1.92A29.2,29.2,0,0,0,503.5,207c6.84-9.68,6-22,6.38-21.94s-4,19.11,5.12,26.94c1.35,1.16,5.08,4.35,10,4a12.6,12.6,0,0,0,7-3c8-6.4,8.18-19.23,8.37-30a103.6,103.6,0,0,0-1.14-17.15" transform="translate(-93.88 -91.97)"/><path class="cls-1" d="M556.94,166a216.27,216.27,0,0,1-4.9,59" transform="translate(-93.88 -91.97)"/><path class="cls-1" d="M573.86,173a221,221,0,0,1-6.07,68.66A75.2,75.2,0,0,1,572,217.85c3.06-8.81,6-13.42,11.47-21.29A17,17,0,0,1,590,191c1.27-.67,6.44-3.4,11-2,6.43,2,8.59,11.22,9,13,4.24,18.2-13.18,27.77-11.41,51.06,0.56,7.33,2.62,10.85,4.94,13,5.49,5.11,13.94,4,18.7,3.34,14.79-2,25-11.41,29.67-16.51" transform="translate(-93.88 -91.97)"/><path class="cls-1" d="M134.13,173.94A641.81,641.81,0,0,1,178,303.22" transform="translate(-93.88 -91.97)"/><path class="cls-1" d="M93.88,241a180.56,180.56,0,0,1,54.32-63.51c5.89-4.28,12.19-8.27,19.26-10s15.1-.9,20.75,3.69c5.34,4.34,7.81,11.28,9.33,18,5,22,2.51,45.18-3.67,66.88s-15.92,42.19-25.62,62.57" transform="translate(-93.88 -91.97)"/><path class="cls-1" d="M217.58,224a126.16,126.16,0,0,0,12.66,44.85" transform="translate(-93.88 -91.97)"/><path class="cls-1" d="M210.41,324.69c15.84,39.07,12,83,7.81,124.92,13.67-14.09,29.52-29.17,49.15-29.45,12.51-.18,24.16,5.83,36.24,9A83.77,83.77,0,0,0,369,419.27" transform="translate(-93.88 -91.97)"/><path class="cls-1" d="M292.7,397.41c18,5.81,21.94-18.09,23-30.35,0.53-6,1.18-12.18,3.78-17.72,4.42,9.06,12.69,15.73,16.36,25.21,2.76,7.11,2.44,17.48-5.65,21-4.48,1.93-11.14,1.25-13.22-3.81,7.72,8.84,22.91,22.16,35,13.08C364,393,364,376,366,360c1-15,1-29-1.25-44.49,3.33,27.8,1.49,11.89,0,0,3.33,27.8-3.46,62.44,18.69,84.16,7.06,6.93,16.43,11.87,26.55,11.13" transform="translate(-93.88 -91.97)"/><path class="cls-1" d="M341,362l49-32" transform="translate(-93.88 -91.97)"/><path class="cls-1" d="M442.81,351a201.08,201.08,0,0,1,2.68,49.22A72.16,72.16,0,0,1,457,364.5c1-1.55,2.46-3.25,4.3-3a4.85,4.85,0,0,1,3,2.18c6.78,8.83,8.54,20.4,12.63,30.76s12.61,20.77,23.74,20.4c6-.2,11.38-3.53,16.38-6.83" transform="translate(-93.88 -91.97)"/><path class="cls-1" d="M493,360a289.5,289.5,0,0,0,1,35" transform="translate(-93.88 -91.97)"/><path class="cls-1" d="M535.54,373.79c2.05-7.24-5.94-14.69-13.35-13.42s-12.48,9.21-12.08,16.73c0.21,4,2.75,8.71,6.78,8.53a8.28,8.28,0,0,0,4.07-1.62A27.53,27.53,0,0,0,533,363.49c2.25,22.44,8,44.52,8.55,67.07s-5.22,46.69-22,61.75c-4.23,3.79-10.05,7-15.37,5-4.45-1.67-6.87-6.44-8.28-11-5.66-18.19-1.35-38.72,9.48-54.4s27.63-26.68,45.77-32.5" transform="translate(-93.88 -91.97)"/><path class="cls-1" d="M554.64,326l1.08,82.78A80.38,80.38,0,0,1,563,373.16c0.81-1.76,2.46-3.81,4.24-3a3.71,3.71,0,0,1,1.64,1.93c3.92,7.95,5.11,16.94,8,25.3s8.43,16.72,17,19.11" transform="translate(-93.88 -91.97)"/><path class="cls-1" d="M591.79,311.95q3.51,55.22,10.49,110.14" transform="translate(-93.88 -91.97)"/><path class="cls-1" d="M572,352.22l41.09-42.15" transform="translate(-93.88 -91.97)"/><path class="cls-1" d="M665.84,465.84a5.06,5.06,0,0,1-2.36,6.47,1,1,0,1,0-.35.31" transform="translate(-93.88 -91.97)"/><path class="cls-1" d="M667.71,323.15c-13.76-7-19.15-25.78-13-39.92S676.59,260.4,692,260.34c9.61,0,19.79,3.34,25.44,11.12,4.45,6.13,5.52,14.13,5.06,21.69-1.12,18.17-10.18,35-21.36,49.38s-24.58,26.86-36.32,40.78c-6.27,7.43-12.27,15.76-13.43,25.42s4.26,20.73,13.78,22.68" transform="translate(-93.88 -91.97)"/><path class="cls-1" d="M335.26,131.91l4.36,88.78a42.84,42.84,0,0,1,8.46-36c1.58-1.93,3.44-3.8,5.84-4.46,6.8-1.89,12,6.52,12.62,13.55s-0.11,15.18,5,20c4.72,4.44,15.49.45,21.37-4.45,5.37-4.48,7.08-10.17,8.05-13.39,1.11-3.7,2.68-8.9,0-13a9.21,9.21,0,0,0-6.21-3.71A10.12,10.12,0,0,0,388,181c-4.66,3.42-4.21,10.66-4,14,0.19,3.09.89,14.38,8.41,17.51C397,214.43,402,212.31,405,211a24.75,24.75,0,0,0,10-8c1.08-1.46,3.33-4.84,6-19,1-5.39,1.63-9.89,2-13-6.18,14.19-4.18,26.49,2,30,4.5,2.56,10.69.16,14-2,8.84-5.78,12.09-19.74,8-35,0.12,4.5.2,10.68,0,18a337.61,337.61,0,0,1-6.86,59.38c-7.28,35.16-13.28,50.92-25.57,69.29-5.7,8.52-13.26,16.93-23.37,18.61-7.36-11-2.89-26,3.45-37.65,20-36.71,52-55,58.35-57.35" transform="translate(-93.88 -91.97)"/><path class="cls-1" d="M283.59,372.3c0.31-2.81-1.68-5.53-4.26-6.69a12.26,12.26,0,0,0-8.3-.22c-6.13,1.73-11.18,6.36-14.34,11.9s-4.56,11.92-5.06,18.27c-0.22,2.78-.13,5.93,1.9,7.84a7.46,7.46,0,0,0,5.69,1.62c4.77-.34,9-3.12,12.64-6.26A57.54,57.54,0,0,0,287.36,377c-0.35,4.9-.65,10.05,1.41,14.51s7.37,7.83,11.94,6" transform="translate(-93.88 -91.97)"/><path class="cls-1" d="M335.26,131.91l4.36,88.78a42.84,42.84,0,0,1,8.46-36c1.58-1.93,3.44-3.8,5.84-4.46,6.8-1.89,12,6.52,12.62,13.55s-0.11,15.18,5,20c4.72,4.44,15.49.45,21.37-4.45,5.37-4.48,7.08-10.17,8.05-13.39,1.11-3.7,2.68-8.9,0-13a9.21,9.21,0,0,0-6.21-3.71A10.12,10.12,0,0,0,388,181c-4.66,3.42-4.21,10.66-4,14,0.19,3.09.89,14.38,8.41,17.51C397,214.43,402,212.31,405,211a24.75,24.75,0,0,0,10-8c1.08-1.46,3.33-4.84,6-19,1-5.39,1.63-9.89,2-13-6.18,14.19-4.18,26.49,2,30,4.5,2.56,10.69.16,14-2,8.84-5.78,12.09-19.74,8-35,0.12,4.5.2,10.68,0,18a337.61,337.61,0,0,1-6.86,59.38c-1.18,5.72-2.58,13.08-5.24,22.71-2.57,9.32-5.22,18.7-10.71,30.06a125.41,125.41,0,0,1-9.61,16.52c-5.7,8.52-13.26,16.93-23.37,18.61-7.36-11-2.89-26,3.45-37.65,20-36.71,52-55,58.35-57.35" transform="translate(-93.88 -91.97)"/><path class="cls-1" d="M220.1,188.55c0.31-.59-0.54-1.23-1.17-1a2.53,2.53,0,0,0-1.24,1.48c-0.81,1.76-1.37,4.35.37,5.22,1.4,0.7,3.19-.86,3-2.4a3.05,3.05,0,0,0-3.55-2.26" transform="translate(-93.88 -91.97)"/><path class="cls-1" d="M498.44,322.28c0.31-.59-0.54-1.23-1.17-1a2.53,2.53,0,0,0-1.24,1.48c-0.81,1.76-1.37,4.35.37,5.22,1.4,0.7,3.19-.86,3-2.4a3.05,3.05,0,0,0-3.55-2.26" transform="translate(-93.88 -91.97)"/><path class="cls-1" d="M558.39,133c0.31-.59-0.54-1.23-1.17-1a2.53,2.53,0,0,0-1.24,1.48c-0.81,1.76-1.37,4.35.37,5.22,1.4,0.7,3.19-.86,3-2.4a3.05,3.05,0,0,0-3.55-2.26" transform="translate(-93.88 -91.97)"/><path class="cls-1" d="M264.22,212.08c-1.34-1.91-5.23-6.86-11.9-8.39-2-.47-5.9-1.36-9.33.67-3.1,1.83-4.17,5-5.33,8.67a37.35,37.35,0,0,0-1.33,16.67c0.69,4.46,2.29,14.75,9.83,18.79A13.41,13.41,0,0,0,251.8,250a14.59,14.59,0,0,0,10.53-4.36c1.86-1.94,3.81-5.19,4-14s-1.61-15.05-2.88-20.57c-2-8.8-.46-6.26-3.78-34.09-1.7-14.24-3.35-25.33-3.33-25.33s3.09,16.57,5.92,39.84a279.31,279.31,0,0,0,8,38.65,36.13,36.13,0,0,0,1.84,5c1.52,3.31,3,6.75,6.27,9.47a17.83,17.83,0,0,0,7.94,3.73" transform="translate(-93.88 -91.97)"/></svg>