<svg id="Layer_1" data-name="Layer 1" xmlns="http://www.w3.org/2000/svg" viewBox="0 0 633.58 410.99"><defs><style>.cls-1{fill:#231f20;}</style></defs><title>dtwln-display2</title><path class="cls-1" d="M298.81,92.64q9.71,71.28,21.92,142.18c0.55,3.16,5.36,1.82,4.82-1.33q-12.21-70.89-21.92-142.18c-0.43-3.17-5.25-1.82-4.82,1.33h0Z" transform="translate(-91.42 -89.49)"/><path class="cls-1" d="M274.09,192.22a565.37,565.37,0,0,1,73.6-92.53c2.26-2.3-1.28-5.84-3.54-3.54a571.68,571.68,0,0,0-74.38,93.54c-1.73,2.72,2.59,5.23,4.32,2.52h0Z" transform="translate(-91.42 -89.49)"/><path class="cls-1" d="M499.81,215.31c6.52-8.78,9.61-19.19,12.48-29.59l-4.82-1.33a41,41,0,0,0-.11,19.37c2.09,7.88,9.23,15.39,18,14.69,22-1.76,18.32-38.88,16.3-53.22-0.45-3.17-5.26-1.82-4.82,1.33a121.72,121.72,0,0,1,.71,25.89c-0.54,7.23-2.49,18.77-11.1,20.76-8.8,2-14.16-7.33-14.94-14.64a39,39,0,0,1,.81-12.84c0.73-3.13-4-4.44-4.82-1.33-2.77,10-5.7,19.94-12,28.39-1.92,2.58,2.42,5.08,4.32,2.52h0Z" transform="translate(-91.42 -89.49)"/><path class="cls-1" d="M475.7,159.34c-3.7,16.79-9.9,61.84,19.25,58.08,3.15-.41,3.19-5.41,0-5-24.4,3.15-17.48-37.94-14.43-51.75,0.69-3.14-4.13-4.48-4.82-1.33h0Z" transform="translate(-91.42 -89.49)"/><path class="cls-1" d="M554.44,166a220.09,220.09,0,0,1-4.81,58.34c-0.69,3.14,4.13,4.48,4.82,1.33a225.31,225.31,0,0,0,5-59.67c-0.16-3.2-5.16-3.22-5,0h0Z" transform="translate(-91.42 -89.49)"/><path class="cls-1" d="M556,124.5c3.22,0,3.22-5,0-5s-3.22,5,0,5h0Z" transform="translate(-91.42 -89.49)"/><path class="cls-1" d="M571.36,173a223.35,223.35,0,0,1-6,68l4.91,0.66a74.8,74.8,0,0,1,6.15-28.5c3-6.74,7.59-15.91,14.13-19.63,3.28-1.87,7.74-3.57,11.27-1.42,2.62,1.6,4.09,5,5,7.81a24.81,24.81,0,0,1-.11,15.83C602.87,227.51,595.9,237.09,596,250c0,5.81.88,12.5,4.94,17s10.32,5.76,16.21,5.48c14.29-.67,26.89-7.41,36.54-17.76,2.19-2.35-1.33-5.89-3.54-3.54-9.4,10.07-23.1,17.81-37.33,16.2-18.29-2.07-11.47-27.5-6.4-38.36,4.62-9.89,8.84-19.34,5.27-30.35-1.57-4.83-4.38-10-9.45-11.82-5.79-2.05-12.68.85-17.23,4.5-6.05,4.85-10.47,13.7-13.45,20.73a80.51,80.51,0,0,0-6.24,29.65c-0.06,2.8,4.23,3.42,4.91.66A228,228,0,0,0,576.36,173c-0.21-3.19-5.21-3.22-5,0h0Z" transform="translate(-91.42 -89.49)"/><path class="cls-1" d="M132,175.2a647.09,647.09,0,0,1,43.66,128.68c0.71,3.14,5.53,1.81,4.82-1.33a653.15,653.15,0,0,0-44.16-129.87c-1.35-2.92-5.66-.38-4.32,2.52h0Z" transform="translate(-91.42 -89.49)"/><path class="cls-1" d="M96,242.22a178.71,178.71,0,0,1,46.71-57.47c6.68-5.4,14-11.08,22.16-13.94,8.75-3.06,19.32-2.23,25.05,5.88,5,7.05,6.32,17,7.17,25.38,1.91,18.86-1.06,37.9-6.47,56-6.15,20.54-15.39,40-24.58,59.26-1.38,2.89,2.93,5.43,4.32,2.52,18-37.79,36.95-78.46,31.3-121.48-2.08-15.87-7.6-33.52-26.45-34.23-17.4-.66-33.5,14.14-45.4,25.21A184.86,184.86,0,0,0,91.72,239.7c-1.48,2.85,2.84,5.39,4.32,2.52h0Z" transform="translate(-91.42 -89.49)"/><path class="cls-1" d="M215.08,224a133.78,133.78,0,0,0,13,46.11c1.41,2.89,5.72.36,4.32-2.52A126.86,126.86,0,0,1,220.08,224c-0.31-3.17-5.31-3.21-5,0h0Z" transform="translate(-91.42 -89.49)"/><path class="cls-1" d="M216,188.5c3.22,0,3.22-5,0-5s-3.22,5,0,5h0Z" transform="translate(-91.42 -89.49)"/><path class="cls-1" d="M265.72,214.8c-3.92-5.43-9.44-9.24-16.2-10.06-8.8-1.06-13,4.87-15.2,12.51-3.27,11.51-2,30.85,9.91,37.36A16.15,16.15,0,0,0,262.82,252c4-3.74,5-9.28,5.28-14.55,0.65-11.37-3.48-21.95-4.29-33.15-1.16-16-4-34.16-5.65-48.65l-4.91.66c3.32,14.34,4.3,29.25,6.47,43.78a256.05,256.05,0,0,0,7.2,33.76c2.85,9.77,7.68,18.25,18.07,20.87,3.12,0.79,4.45-4,1.33-4.82-12.3-3.09-14.69-16.85-17.23-27.59-2-8.64-3.74-17.39-4.93-26.19-1.84-13.65-3-27.7-6.09-41.14-0.62-2.69-5.24-2.17-4.91.66,1.4,12.25,3.35,24.42,4.6,36.69,0.65,6.36.74,12.87,1.76,19.19,0.64,4,1.81,7.86,2.58,11.82,1.3,6.69,2.59,16.33-.83,22.62a11.11,11.11,0,0,1-14.51,4.32c-5.37-2.88-7.26-9.35-8.29-14.93-1.3-7-.86-14.7,2.23-21.22,4.37-9.21,16.41-2.76,20.71,3.18,1.87,2.58,6.21.09,4.32-2.52h0Z" transform="translate(-91.42 -89.49)"/><path class="cls-1" d="M208,325.35c15.74,39.58,11.8,82.86,7.72,124.26-0.22,2.21,2.85,3.23,4.27,1.77,9.22-9.48,18.94-19.27,31.13-24.86,14.44-6.63,28.13-2.67,42.4,2.16,25.84,8.75,53.15,7.24,76.7-7.25,2.74-1.68.23-6-2.52-4.32a82.17,82.17,0,0,1-41.12,12.29c-15.65.37-28.94-5.31-43.69-9.41-12.54-3.48-24.69-2.76-36.34,3.21s-21.09,15.39-30.09,24.64l4.27,1.77c4.13-41.81,8-85.61-7.9-125.59-1.17-3-6-1.67-4.82,1.33h0Z" transform="translate(-91.42 -89.49)"/><path class="cls-1" d="M292,399.82c28,8.14,23.41-34.88,29.63-49.22h-4.32c4.8,9.3,14,16.56,16.84,26.83,1.13,4.11,1.26,9.16-1.3,12.79-3.11,4.39-11,5.6-13.73.22l-3.93,3c6.46,7.29,15,15.22,25,16.63,11.24,1.57,18.29-7.27,22.17-16.73,4.36-10.63,5.2-22.94,6.12-34.3a201.62,201.62,0,0,0-1.4-44.22c-0.39-2.76-5.25-2.14-4.91.66,0.62,5.16.57,11.05,2,16.1,0.72,2.63,5.2,2.22,4.91-.66-0.52-5.15-1.23-10.3-1.87-15.44-0.39-3.14-5.37-3.21-5,0,2.31,20.28-.31,41.24,5.26,61.11,5.32,19,21.18,37.62,42.48,36.68,3.2-.14,3.22-5.14,0-5-21.53.95-35.15-19.66-39-38.49-3.63-17.86-1.71-36.28-3.76-54.3h-5c0.64,5.14,1.35,10.28,1.87,15.44l4.91-.66c0.18,0.66-.09.14,0-0.22a11.7,11.7,0,0,0-.35-2.83q-0.71-5.86-1.41-11.72l-4.91.66c3.07,21.95,3,46.18-2.17,67.85-2.16,9-7.51,22.55-18.9,21.15-9.07-1.11-16.73-8.74-22.5-15.25-2-2.21-5.17.6-3.93,3,6,11.74,22.46,5,24.68-5.91,3.23-15.8-11.38-26.43-17.86-39-0.8-1.55-3.57-1.72-4.32,0-4.34,10-3.51,20.94-6.07,31.38-2.23,9.08-7,18.72-17.91,15.54-3.1-.9-4.42,3.92-1.33,4.82h0Z" transform="translate(-91.42 -89.49)"/><path class="cls-1" d="M342.29,364.2l49-32c2.68-1.75.18-6.08-2.52-4.32l-49,32c-2.68,1.75-.18,6.08,2.52,4.32h0Z" transform="translate(-91.42 -89.49)"/><path class="cls-1" d="M440.4,351.7A205.65,205.65,0,0,1,443,400.25h5a72.33,72.33,0,0,1,3.28-18,68.08,68.08,0,0,1,4-9.78c1.09-2.17,2.69-6.6,5.11-7.4,2.18-.72,2.36.63,3.5,2.41a37.89,37.89,0,0,1,1.93,3.42,62.9,62.9,0,0,1,3.34,8.19c1.81,5.3,3.24,10.74,5.3,15.95,3.21,8.11,8.64,16.3,16.74,20.17,9.62,4.6,18.83.27,27.05-5.11,2.68-1.75.18-6.08-2.52-4.32-5.49,3.59-11.8,7.65-18.67,6.19-6-1.28-10.69-6-14-10.94-6.34-9.68-7.6-21.65-12.61-32-1.64-3.39-4.34-9.27-8.55-10-4.45-.83-7.08,3.94-8.93,7.12a76.4,76.4,0,0,0-10,34.07c-0.19,3.22,4.8,3.2,5,0a211.24,211.24,0,0,0-2.77-49.88c-0.55-3.16-5.37-1.82-4.82,1.33h0Z" transform="translate(-91.42 -89.49)"/><path class="cls-1" d="M490.5,360a306.16,306.16,0,0,0,1,35c0.27,3.18,5.28,3.21,5,0a306.16,306.16,0,0,1-1-35c0.09-3.22-4.91-3.22-5,0h0Z" transform="translate(-91.42 -89.49)"/><path class="cls-1" d="M514,330.5c3.22,0,3.22-5,0-5s-3.22,5,0,5h0Z" transform="translate(-91.42 -89.49)"/><path class="cls-1" d="M538,374.45c1.67-8.21-4.76-16.12-13.14-16.69-9.11-.61-16.13,7.9-17.08,16.34-0.82,7.24,4,16.82,12.53,13.12,9-3.93,14.26-14.44,15.24-23.73h-5c3.65,34.83,16.28,72.08,1.89,106.1a59.1,59.1,0,0,1-13,19.41c-3.12,3-7.6,6.84-12.3,6.45-5.35-.44-7.72-6.1-9-10.52-5-17-1-35.73,8.54-50.34,10.48-16,27.27-26.8,45.19-32.71,3-1,1.74-5.83-1.33-4.82-17.71,5.84-34.1,16-45.41,31.08-11.47,15.25-16.87,35.34-12.83,54.17,1.53,7.14,4.66,16.07,12.72,17.87,8.34,1.86,16-5.15,21-10.89,11.57-13.26,16.62-30.86,17.8-48.14,1.78-26.15-5.6-51.84-8.31-77.67a2.5,2.5,0,0,0-5,0,25.58,25.58,0,0,1-6.89,15c-2,2.1-4.11,4.31-7.12,3.82-3.58-.58-4.16-4.32-3.8-7.58,0.53-5,3.79-10.34,8.87-11.7,5.93-1.59,12.85,3.73,11.56,10.05-0.64,3.14,4.18,4.49,4.82,1.33h0Z" transform="translate(-91.42 -89.49)"/><path class="cls-1" d="M552.14,326l1.08,82.78h5a80.61,80.61,0,0,1,3.86-26.42c0.71-2.18,1.58-6.26,3.09-7.94s1.42-1.7,2.73,1.52a96.63,96.63,0,0,1,3.64,11.84c3.35,12.62,8,26.63,21.68,31.09,3.07,1,4.38-3.83,1.33-4.82-9.49-3.09-14-12.69-16.56-21.59-1.41-4.82-2.47-9.75-4.06-14.52-1-2.95-2.22-8.1-5.17-9.78-12.11-6.89-15.63,34.65-15.54,40.62,0.05,3.21,5,3.22,5,0L557.14,326c0-3.21-5-3.22-5,0h0Z" transform="translate(-91.42 -89.49)"/><path class="cls-1" d="M589.29,311.95q3.54,55.22,10.49,110.14c0.4,3.15,5.4,3.19,5,0q-7-54.9-10.49-110.14c-0.2-3.2-5.21-3.22-5,0h0Z" transform="translate(-91.42 -89.49)"/><path class="cls-1" d="M573.77,354l41.09-42.15c2.25-2.31-1.28-5.84-3.54-3.54l-41.09,42.15c-2.25,2.31,1.28,5.84,3.54,3.54h0Z" transform="translate(-91.42 -89.49)"/><path class="cls-1" d="M663.43,466.5a2.68,2.68,0,0,1-1.21,3.65l3.42,3.42a3.53,3.53,0,0,0-.65-4.22,3.44,3.44,0,0,0-4.5-.32c-2.83,2.33-.14,7.08,3.3,6,3.06-1,1.75-5.79-1.33-4.82l1.79,1.66L663.6,473l-0.45.25h-1.33a4.6,4.6,0,0,1-.73-1.16l0.34-1.26-0.11.25a2.52,2.52,0,0,0,3.42,3.42,7.57,7.57,0,0,0,3.51-9.3,2.58,2.58,0,0,0-3.08-1.75,2.52,2.52,0,0,0-1.75,3.08h0Z" transform="translate(-91.42 -89.49)"/><path class="cls-1" d="M669,321c-17.84-9.62-18.14-34.51-4.19-47.55,13.19-12.33,42.19-16.8,52.22,2,5.29,9.93,3.25,22.9.06,33.15s-8.72,19.93-15.07,28.68c-13.13,18.11-30.62,32.54-43.88,50.51-5.84,7.91-10.56,17.52-9,27.61,1.32,8.54,6.81,16.24,15.43,18.42,3.12,0.79,4.45-4,1.33-4.82-12-3-14-17.41-10-27.36,4.58-11.64,14.58-21.14,22.94-30.13,16-17.23,33-34.51,41.5-56.91,7-18.41,8.74-44.72-12.78-53.79-17.22-7.26-39.2-.9-50.49,13.8-12.13,15.8-8.67,40.92,9.46,50.69,2.83,1.53,5.36-2.79,2.52-4.32h0Z" transform="translate(-91.42 -89.49)"/><path class="cls-1" d="M332.76,131.91l4.36,88.78L342,220c-2.36-11.53.12-27.8,9.86-35.74,6-4.88,10.61,2.28,11.83,7.68s0.37,10.82,1.82,16.09c2.47,9,9.81,11.78,18.29,9.07a28.82,28.82,0,0,0,19-18.67c2.5-7.39,4-17.38-5-20.91a11.9,11.9,0,0,0-15.7,8c-3.86,13.15,2.81,34.61,19.9,29.27,19.6-6.12,21.27-26.18,23.42-43.81,0.37-3.05-3.94-3-4.91-.66-3.3,8-5.65,17.83-2.24,26.18C421,203,427,205.77,433.8,204c17.75-4.58,19.32-25.92,15.61-40.68-0.68-2.72-5-2.17-4.91.66a357.13,357.13,0,0,1-10.78,94.58c-3.16,12.8-7,25.47-13.15,37.19-6.47,12.4-15.26,28.12-30,31.1l2.82,1.15c-7.17-11.61-1.81-25.73,4.26-36.6a139.5,139.5,0,0,1,22.18-29.5c9.37-9.57,21.11-20.28,33.86-25.23,3-1.15,1.68-6-1.33-4.82-14.83,5.75-28.37,18.11-39,29.55-9.07,9.8-17.31,21-23,33.1-5.29,11.31-8.31,24.75-1.34,36a2.59,2.59,0,0,0,2.82,1.15c12.32-2.49,20.36-12.65,26.79-22.7a135.78,135.78,0,0,0,13-26c8.11-21.84,12.6-45.54,15.44-68.63A343.44,343.44,0,0,0,449.5,164l-4.91.66c2.77,11,3.16,27.5-8.91,33.35-6.53,3.16-12.07.95-13.53-6.15-1.4-6.82.67-13.94,3.26-20.2L420.5,171c-1,8.34-2.31,16.89-4.93,24.91a19.71,19.71,0,0,1-8.28,11c-3.66,2.41-9.3,5-13.65,3.3-3.84-1.46-5.44-5.46-6.32-9.19-1.31-5.52-2.77-16.58,4-18.92a6.66,6.66,0,0,1,7.1,1.59c3.4,3.66.81,10.39-.7,14.46-2.94,7.91-11.94,15.93-21,15.1-9.37-.86-6.65-16.27-8.14-22.61-1.33-5.67-5.27-12.33-11.62-13-8.3-.93-13.92,8.95-16.78,15.35a46.35,46.35,0,0,0-2.93,28.4c0.56,2.75,5,2.15,4.91-.66l-4.36-88.78c-0.16-3.2-5.16-3.22-5,0h0Z" transform="translate(-91.42 -89.49)"/><path class="cls-1" d="M286.09,372.3c-0.25-12.08-14.8-11.23-22.26-6.3-9.78,6.46-14,18.28-14.7,29.55-0.26,4.26.44,8.91,4.66,11,4.49,2.21,10.06.49,14.14-1.84,10.12-5.77,17.43-16.55,21.84-27l-4.91-.66c-0.42,6.2-.69,13.16,3.38,18.33,3.19,4.05,8.13,6.08,13.14,4.61,3.08-.9,1.77-5.73-1.33-4.82-10.38,3-10.62-11.77-10.19-18.12,0.21-3.07-3.92-3-4.91-.66a56.08,56.08,0,0,1-11.41,17.39c-4.28,4.41-17.93,15.36-19.48,3.25-0.84-6.55,2.61-15.72,6.38-20.9a23,23,0,0,1,7.16-6.52c3.85-2.18,13.34-4.66,13.5,2.75,0.07,3.21,5.07,3.22,5,0h0Z" transform="translate(-91.42 -89.49)"/></svg>