<svg id="Layer_1" data-name="Layer 1" xmlns="http://www.w3.org/2000/svg" viewBox="0 0 322.89 166.05"><defs><style>.cls-1{fill:#231f20;}</style></defs><title>nope</title><path class="cls-1" d="M210.44,237a358.42,358.42,0,0,1,2.07,68h5a150,150,0,0,1,9.2-57.35c1.9-5.12,8.75-27.15,16.92-23.38,3.89,1.79,5.75,7.21,7.16,10.86,1.77,4.54,3.39,9.14,5,13.74,3.19,9.21,6,18.52,8.78,27.86,2.1,7.1,4.46,14.38,8.91,20.4,9.63,13,25.69,13,40.21,10.29,3.16-.59,1.82-5.41-1.33-4.82-15.13,2.82-30.19,1.71-37.9-13.43-3.25-6.39-4.94-13.46-7-20.29q-3.76-12.61-8.16-25c-2.86-8.06-7.35-27.51-19.74-24.92-6,1.26-9,7.87-11.4,12.8A152.45,152.45,0,0,0,212.5,305c0.11,3.24,4.79,3.2,5,0a358.42,358.42,0,0,0-2.07-68c-0.4-3.15-5.4-3.19-5,0h0Z" transform="translate(-210.41 -218.75)"/><path class="cls-1" d="M334.85,264c2.54-8.11-3.22-16.66-11.32-18.59-8.92-2.12-17.79,4-22.17,11.36-7.39,12.45-11.13,45.66,8.36,49.94,19.1,4.19,32.74-23.8,28.28-39.48-1.85-6.51-9.37-13.73-16.44-9.16-7.36,4.75.75,13.26,6,15.55,8.26,3.61,18.52,1.36,25-4.69,8.57-8,10.68-20.51,10.18-31.65h-5l9.58,72.13L372.06,345l2.36,17.78c0.68,5.12,3.12,13.23-.4,17.76h3.54c-9.58-12.08-10.9-28.55-11.65-43.39a228.66,228.66,0,0,1,2.72-48.68c2.5-15.14,6-31.18,12.33-45.24,2.62-5.82,9.23-15,15.95-8.31,5,5,7.86,14.12,9.38,20.82,1.81,8,1,17.39-5.38,23.26-5.81,5.38-16,4.55-19.48-2.93l-3.93,3c12.93,12.87,33.28,17.16,50.19,10,16.74-7.07,27.84-25.19,27.23-43.28-0.21-6.15-1.92-16.86-10.27-16.31-7.8.51-11.49,10.84-12.23,17.28-2.13,18.51,11.81,34.21,29,38.77,25.45,6.75,49.59-6.78,70.71-19.36,2.76-1.65.25-6-2.52-4.32-15,8.93-30.74,18.44-48.48,20.17-15.65,1.53-32.94-3.5-40.54-18.33-3.23-6.3-4.43-13.92-2.27-20.76,1.15-3.62,4.86-11,9.33-6.88,2.46,2.28,2.31,8.12,2.31,11.15,0,14.81-8.66,29.44-21.89,36.21-15.35,7.86-35,4.1-47-7.9-2.11-2.1-5.1.55-3.93,3,2.91,6.18,9.61,9.35,16.3,8.86,7.06-.51,12.79-5.31,15.85-11.51,3.74-7.59,3.46-16.18,1.18-24.17-2.13-7.42-5.63-18.3-12.67-22.54-28.35-17.08-36.87,78.5-37.11,92.33-0.37,20.7-.09,45.52,13.37,62.51a2.5,2.5,0,0,0,3.54,0c6.31-8.11,1.9-21,.68-30.19l-5.12-38.53-10.37-78.06c-0.41-3.08-5.15-3.31-5,0,0.65,14.67-5.88,36.26-24.83,32.8-1.67-.3-12.88-5.25-7.62-8.16,3.59-2,7.16,4.21,7.88,6.64,2.22,7.55-1.16,16.53-4.94,23-4.33,7.42-15.16,15.34-22.84,7.16-5-5.36-4.84-14.32-4.37-21.13,0.63-9.11,2.66-19.47,10.82-24.91,3.94-2.62,9.08-3.75,13.36-1.25,4,2.32,6.22,6.77,4.82,11.24-1,3.08,3.86,4.4,4.82,1.33h0Z" transform="translate(-210.41 -218.75)"/></svg>