<svg id="Layer_1" data-name="Layer 1" xmlns="http://www.w3.org/2000/svg" viewBox="0 0 462.03 347.25"><defs><style>.cls-1{fill:#231f20;}</style></defs><title>sorry</title><path class="cls-1" d="M292.93,125.38c-15.4-23.12-54.7-23.77-75.56-8.08-10.62,8-17.23,22.62-11.77,35.52,5.89,13.93,21.9,20.62,34.77,26.37,15.33,6.85,32,12.88,44.69,24.19,11.1,9.86,19.92,25.41,17.66,40.68-2.41,16.28-17.31,24.79-32.17,27.77-17.76,3.55-37.11,1.37-54.37-3.59-18-5.16-38.47-14.45-45.5-33.24-3.26-8.72-3.29-19.17,2.61-26.8,5.56-7.2,14.93-10.92,23.7-7.88,3,1.06,4.36-3.77,1.33-4.82-13-4.5-27.43,3.46-32.55,15.81-5.89,14.18.07,30.59,10.35,41.08,12,12.26,29.5,18.78,45.91,22.52,16.77,3.82,35.12,5.2,52,1.29,13.64-3.17,26.79-10.88,31.91-24.56s0.53-28.87-7.35-40.39c-9.38-13.73-23.87-22-38.67-28.84-8.19-3.77-16.56-7.16-24.69-11.07-7.57-3.65-15.51-7.68-21.08-14.15-7-8.14-6.84-19.06-1.23-27.93s15.66-13.6,25.62-15.76c17.23-3.74,39.5-1.49,50.09,14.4,1.78,2.67,6.11.16,4.32-2.52h0Z" transform="translate(-163.42 -53.3)"/><path class="cls-1" d="M335.93,175c-9.85-2.14-16.4,6-19.64,14.32-3.91,10-4.39,22.61.25,32.47A27.31,27.31,0,0,0,343.13,237c11.09-.71,20.68-7.47,26.12-17,8.95-15.69,7.84-41.88-10.49-50.49-20.33-9.56-38.48,13.07-29.14,32,10.26,20.81,39.64,17.4,54.59,4.41,2.43-2.11-1.12-5.64-3.54-3.54-10.44,9.07-28.36,13.1-40.31,4.39a20.52,20.52,0,0,1-7.88-21.09c1.92-7.76,8.92-13.93,17.12-13.5,17.66,0.95,22.34,21.86,19,36-4.19,17.45-24.62,32-41.2,19.36-8.68-6.63-10.18-18.68-8.45-28.79,1.27-7.44,5.81-21.07,15.69-18.93,3.14,0.68,4.48-4.14,1.33-4.82h0Z" transform="translate(-163.42 -53.3)"/><path class="cls-1" d="M382.31,208.41c5.26-4.21,8-10.36,9.21-16.89,0.91-5.07.16-10.11,0.87-15.16,0.57-4.1,2.32-5.13,6.49-4.41a26.26,26.26,0,0,1,12.34,5.46c6.72,5.82,6.42,14.3,4.85,22.29-2.3,11.67-7,27.19,4.21,36,9.42,7.39,22.78-.31,27.54-9.53,4-7.71,4.42-16.62,4.75-25.12a202.56,202.56,0,0,0-1.24-32.84l-3.16,2.41c10.07,4.2,31.1,2.84,31.86,17.83,0.43,8.54-6.53,16.79-8.59,24.9-1.95,7.66-.33,15.09,7.55,18.31,10.16,4.15,19.86-2.64,24.26-11.67,1.4-2.88-2.91-5.42-4.32-2.52-2.69,5.53-7.61,10.82-14.28,10.48-4.85-.24-8.92-3.31-9.09-8.28-0.27-7.83,5-15.38,7.75-22.42,2.83-7.26,2.11-15.21-3.72-20.79-8.06-7.71-20.33-6.59-30.08-10.66a2.51,2.51,0,0,0-3.16,2.41,191.69,191.69,0,0,1,1.42,27.29c-0.16,8.25-.1,17-2.86,24.91-2.39,6.81-9,13.86-16.83,13.18-8.56-.74-10.55-11.09-9.91-18,1.13-12.35,8.11-26,.23-37.55-3.62-5.3-9.3-8.44-15.35-10.25-4.35-1.3-10.29-2.35-13.44,1.76-3,3.88-2.39,9.69-2.38,14.27,0,7.84-2.1,16-8.43,21.06-2.51,2,1,5.53,3.54,3.54h0Z" transform="translate(-163.42 -53.3)"/><path class="cls-1" d="M501.81,221.89a185.5,185.5,0,0,1,15.41-45.06,2.5,2.5,0,0,0-4.32-2.52,58.55,58.55,0,0,0-10.19,40.33c1.75,14.65,14.42,24.93,29.29,22.85,11.76-1.65,19.84-12.54,26.15-21.65a133.53,133.53,0,0,0,18.72-41.46c0.71-2.63-3.43-4.6-4.57-1.93-21.59,50.76-23.1,108.17-48.79,157.37-10.89,20.85-26,40.25-46.48,52.34-25.45,15-55.71,15.15-84.15,11a113,113,0,0,1-56.05-24.26C321.59,356.42,306,339.16,300.21,320c-12-39.53,32.44-57.51,63.3-63.06A128.84,128.84,0,0,1,400,256c15,1.58,30.49,3.31,45,7.81,25,7.75,45.49,24.73,59.89,46.32,1.78,2.66,6.11.16,4.32-2.52-12.63-18.94-29.77-34.78-50.7-44-13.09-5.79-27-8.49-41.07-10.39s-28.53-3.95-42.9-2.77a143,143,0,0,0-43,10.52c-16.4,6.87-33,18.44-37.28,36.78-5.15,22.2,9,43.5,23.19,59.21,15.36,17,33.93,30.37,56,37.18,10.18,3.14,20.85,4.5,31.43,5.5,14.87,1.42,30,1.36,44.66-1.67,25.62-5.28,47-20.64,62.78-41.14,35.39-45.87,38.92-105.08,55.78-158.53,2.49-7.91,5.31-15.71,8.56-23.33L572,173.05a131.27,131.27,0,0,1-15.44,36.07c-5.26,8.34-12.24,19.29-22,22.67a21.5,21.5,0,0,1-17.09-1.85c-6.78-3.81-9.52-10.53-10.06-18a54.19,54.19,0,0,1,9.76-35.14l-4.32-2.52A190.59,190.59,0,0,0,497,220.57c-0.64,3.14,4.18,4.48,4.82,1.33h0Z" transform="translate(-163.42 -53.3)"/><path class="cls-1" d="M620.55,55.08Q594.8,160.19,579.31,267.44c-0.45,3.15,4.36,4.51,4.82,1.33Q599.6,161.66,625.37,56.41c0.77-3.12-4.06-4.46-4.82-1.33h0Z" transform="translate(-163.42 -53.3)"/><path class="cls-1" d="M577.55,296.32a2.51,2.51,0,0,1-2.74,1.65l2.16,1.24a2.07,2.07,0,0,1-.32-1.87l-1.75,1.75c0.5-.1,1.06.82,0.3,1.09a2.56,2.56,0,0,0-1.75,3.08,2.52,2.52,0,0,0,3.08,1.75,5.57,5.57,0,0,0-3-10.73,2.48,2.48,0,0,0-1.75,1.75,6.94,6.94,0,0,0,.21,4.5,3.68,3.68,0,0,0,1.81,2.24,4.81,4.81,0,0,0,2.59.13,7.51,7.51,0,0,0,5.94-5.23c1-3.08-3.86-4.39-4.82-1.33h0Z" transform="translate(-163.42 -53.3)"/></svg>