<svg id="Layer_1" data-name="Layer 1" xmlns="http://www.w3.org/2000/svg" viewBox="0 0 378 226.58"><defs><style>.cls-1{fill:#c71e00;}</style></defs><title>wait</title><path class="cls-1" d="M76.64,150.19c9.27,31,15.74,62.65,22.09,94.33q9.8,48.9,19.59,97.81c1,5.18,8.17,4.31,9.64,0l42.29-123.45H160.6l15.33,59.69c3.24,12.62,5.32,33.52,20.72,37.28a5.08,5.08,0,0,0,6.15-3.49,935,935,0,0,0,27.37-188.21c0.27-6.43-9.73-6.42-10,0a921.33,921.33,0,0,1-27,185.55l6.15-3.49c-6-1.46-8-8.37-9.46-13.65-2.24-8.07-4.18-16.23-6.26-24.34l-13.35-52c-1.29-5-8.11-4.48-9.64,0L118.31,339.67H128q-9.79-48.9-19.59-97.81c-6.35-31.67-12.81-63.36-22.09-94.33-1.84-6.15-11.5-3.53-9.64,2.66h0Z" transform="translate(-76.4 -119.32)"/><path class="cls-1" d="M284.4,244c6.76-12.17-5.07-26.68-18.11-26.27-16,.5-25.78,16.52-31,29.74-6,15.34-8.93,35.54-2.05,51.1,5.63,12.73,22.54,21.52,34.54,11.21,7-6,10.12-16.89,12.76-25.38a142.24,142.24,0,0,0,5.8-31l-9.82,1.33c3.66,13.43,9.36,27.25,20.62,36.09,10.48,8.23,24.1,10.92,36.45,5.53,5.88-2.57.8-11.19-5-8.63-9.47,4.13-20.68,0-27.7-6.9-7.89-7.72-11.83-18.31-14.67-28.74-1.55-5.67-9.39-4.12-9.82,1.33a129.6,129.6,0,0,1-4.16,24c-2,7.22-4.25,15.35-8.34,21.7-4,6.19-11,6.68-16.67,2.14s-7.28-13-7.58-19.91c-0.67-15,3.18-31.51,12.15-43.79,3.5-4.79,9.28-10.37,15.76-9.7,4.83,0.5,11.09,6.06,8.24,11.18-3.13,5.63,5.51,10.68,8.63,5h0Z" transform="translate(-76.4 -119.32)"/><path class="cls-1" d="M323.74,219.57A515.23,515.23,0,0,0,328.9,311c0.92,6.34,10.56,3.65,9.64-2.66a500.67,500.67,0,0,1-4.8-88.72c0.22-6.44-9.78-6.43-10,0h0Z" transform="translate(-76.4 -119.32)"/><path class="cls-1" d="M313.67,149.25c6.43,0,6.45-10,0-10s-6.45,10,0,10h0Z" transform="translate(-76.4 -119.32)"/><path class="cls-1" d="M373.53,129.2L381.27,305c0.28,6.41,10.28,6.44,10,0L383.53,129.2c-0.28-6.41-10.28-6.44-10,0h0Z" transform="translate(-76.4 -119.32)"/><path class="cls-1" d="M355.55,275.37a813.81,813.81,0,0,1,96.28-53.87c5.81-2.75.74-11.38-5-8.63a813.81,813.81,0,0,0-96.28,53.87c-5.37,3.5-.36,12.16,5,8.63h0Z" transform="translate(-76.4 -119.32)"/><path class="cls-1" d="M445.92,299.45c-1.4-.86-2.72-2.1-2.4-3.83,0.29-1.55.75,0.54,0.77,1.42a7.72,7.72,0,0,1-7.25,7.59l4.82,3.67A39.24,39.24,0,0,1,439.94,295c0.17-6.44-9.83-6.43-10,0a47.94,47.94,0,0,0,2.28,16,5.12,5.12,0,0,0,4.82,3.67,17.68,17.68,0,0,0,15-9.19c3-5.53,3.39-13.86-2-18.17-5-4-12.47-1.66-15.44,3.67-3.56,6.4.58,13.68,6.18,17.14s10.52-5.26,5-8.63h0Z" transform="translate(-76.4 -119.32)"/></svg>