<svg id="Layer_1" data-name="Layer 1" xmlns="http://www.w3.org/2000/svg" viewBox="0 0 260.14 206.14"><defs><style>.cls-1{fill:#231f20;}</style></defs><title>yep</title><path class="cls-1" d="M225.87,227.43c-1.69,10.31-3,21.71,1.1,31.63,4.22,10.15,14.26,15.36,25,13.72,12.3-1.88,22.56-10.45,30.42-19.6a94.63,94.63,0,0,0,18.74-34.26l-4.91-.66q-1.2,37.53.37,75.08c1,23.37,4.06,46.83,3.44,70.24-0.3,11.15-1.64,22.29-5,32.94-2.49,7.81-9.78,25.71-21.1,19.36-7.88-4.42-9-17-9.6-25a98.65,98.65,0,0,1,2.07-28.63,120.7,120.7,0,0,1,26.11-51.71A129.69,129.69,0,0,1,314,290.4c7.5-5.57,15.72-9.92,23.67-14.79,7.5-4.59,14.83-9.79,20.16-16.89,4.7-6.27,9-15.69,4.83-23.32-3.29-6-11.58-9-17.08-4-6,5.47-5.44,16-4,23.16,3.84,19.11,23.78,34.08,43.13,26.19,17.47-7.13,23.29-28,27-44.75l-4.91-.66,2.46,65.17c0.4,10.46.82,20.93,1.18,31.39s0.41,20.81-2.94,30.82h4.82a293.27,293.27,0,0,1,.53-110.27c1.59-8,2.91-17.37,7.77-24.19,5.13-7.21,17.26-10.56,21.19-.28,2.74,7.16,0,15.56-4.73,21.23a27.43,27.43,0,0,1-8.12,6.68,24.83,24.83,0,0,1-5.89,2.28c-0.32.08-6.89,1-6.63,0.18l-2.41,1.84,68,1.63c3.22,0.08,3.22-4.92,0-5l-68-1.63a2.55,2.55,0,0,0-2.41,1.84c-1.82,6,5.84,7.11,10,6.49a31,31,0,0,0,18-9.71c8.25-9,13.18-28,.29-35.57-5.67-3.33-13-1.87-18.14,1.79-6.2,4.41-9.18,11.75-11.07,18.86-5,18.74-7.37,38.49-8.17,57.83a300.86,300.86,0,0,0,4.9,67.34c0.48,2.6,4.1,2.15,4.82,0,3.1-9.25,3.49-18.91,3.24-28.6-0.29-11-.81-22-1.23-33l-2.54-67.14c-0.1-2.71-4.28-3.53-4.91-.66-3.33,15.15-8.34,35.66-24.68,41.73C361,284.23,343.06,261.75,346,242c0.84-5.67,6-11.59,11.18-5.76,4.28,4.8,1.28,12.27-1.6,16.93-5,8.1-13.09,13.64-21.09,18.5-15.25,9.27-29.77,18.13-42,31.41-23.18,25.2-37.33,59.91-32.42,94.4,1,7.08,2.77,14.85,8,20.11A14.3,14.3,0,0,0,285.59,420c7.12-4.09,10.84-12.25,13.43-19.66a113.35,113.35,0,0,0,5.7-29.72c1.69-24.39-1.79-49-2.93-73.34q-1.85-39.49-.55-79c0.09-2.88-4.1-3.31-4.91-.66-5.91,19.39-19.77,41.94-39.93,48.94-10,3.48-20.81.74-25-9.72-3.48-8.76-2.23-19-.75-28.06,0.52-3.15-4.3-4.5-4.82-1.33h0Z" transform="translate(-224.24 -215.84)"/></svg>